<?xml version="1.0" encoding="UTF-8" standalone="no"?><svg width="100%" height="100%" viewBox="0 0 2000 2000" version="1.1" xmlns="http://www.w3.org/2000/svg" xmlns:xlink="http://www.w3.org/1999/xlink" xml:space="preserve" xmlns:serif="http://www.serif.com/" style="fill-rule:evenodd;clip-rule:evenodd;stroke-linecap:round;stroke-linejoin:round;stroke-miterlimit:1.5;"><path d="M1030.557,558.398c103.649,5.257 168.136,-22.103 213.552,-53.476c-19.744,-3.768 -45.078,-9.542 -62.007,-22.692c-31.78,25.159 -67.618,46.046 -117.242,52.421l-34.281,1.298l-0.021,22.449Zm-61.113,84.875c-55.011,17.018 -118.199,21.77 -188.221,16.271c-57.919,-2.164 -110.601,-21.202 -160.076,-50.573c-16.019,5.994 -33.625,5.638 -51.453,4.398c-41.389,-12.531 -63.892,-35.134 -60.248,-71.682c-9.564,-12.136 -20.138,-19.222 -32.103,-19.35c-17.838,-0.949 -29.237,3.6 -29.658,20.669l0.602,49.008c4.714,-14.392 23.821,-24.334 30.044,-24.603c4.538,-1.175 15.798,12.971 10.007,32.326c-9.25,20.64 -21.483,39.575 -39.139,55.411c66.364,36.941 159.528,62.156 252.867,65.086c117.111,6.166 271.646,-56.841 267.38,-76.96Zm-0.123,-52.702c-32.678,1.704 -66.414,2.837 -99.265,-1.829c-72.286,-18.771 -129.863,-53.23 -186.198,-96.397c-19.25,5.689 -26.464,20.781 -22.252,40.547c21.745,-0.639 34.312,2.252 31.663,10.994c-2.811,21.488 -17.359,37.647 -32.367,51.629c50.962,19.236 107.7,32.797 169.927,34.196c64.16,-2.401 141.88,-14.634 138.492,-39.139m0.102,-54.623l-34.281,-1.298c-49.625,-6.375 -85.463,-27.262 -117.242,-52.421c-16.929,13.15 -42.264,18.924 -62.007,22.692c45.416,31.373 109.903,58.733 213.552,53.476l-0.021,-22.449m0.901,-33.401l-1.583,-20.053c-31.269,-3.75 -56.716,-15.274 -80.478,-34.038c-5.707,9.461 -21.529,15.547 -34.742,20.317c31.651,19.226 73.894,34.251 116.803,33.774m-0.88,55.851l-0.021,-22.449m71.004,165.579c97.286,36.897 208.447,49.513 327.723,47.928c79.279,-7.2 149.224,-33.069 210.179,-76.917l83.745,13.958c32.781,1.693 50.509,-4.157 55.145,-21.227c-0.537,-15.536 -22.251,-18.9 -62.66,-10.982l59.051,-27.915c36.457,-13.812 45.05,-29.91 39.286,-47.241c-8.106,-12.145 -33.194,-1.566 -68.274,21.473l41.873,-55.83c4.6,-10.777 4.152,-22.13 -2.975,-25.871c-1.693,-2.224 -11.991,-4.507 -20.839,0.246l-20.205,23.478l-1.268,-48.6c-5.331,-12.299 -15.194,-22.958 -33.426,-23.529c-10.594,0.999 -19.428,7.867 -26.505,20.594c-12.03,18.98 -63.71,-6.943 -47.241,-23.62c20.315,-19.702 38.852,-32.297 57.977,-47.241c4.857,-5.951 6.685,-16.186 1.441,-23.094c-6.217,-6.219 -17.541,-5.397 -24.737,-2.465l-33.608,27.706l17.179,-49.388c3.151,-9.521 0.723,-17.996 -5.733,-25.716c-9.427,-11.917 -23.44,-20.266 -38.287,-27.967c-14.958,-6.453 -23.702,-6.395 -31.482,-7.117c-3.998,-4.995 -11.99,-7.749 -24.4,-6.736c-11.549,3.017 -18.985,25.056 -25.716,50.358l-8.589,-1.074l-2.425,-32.589c0.214,-8.565 -4.231,-21.301 -10.632,-19.051c-5.064,-1.769 -14.516,6.68 -18.079,10.841l-8.589,20.399l-15.262,8.691c-14.079,5.979 -26.767,-1.698 -13.669,-14.26l29.069,-25.178c7.586,-5.845 11.216,-20.948 3.43,-25.832c-11.626,-8.023 -18.402,-1.569 -23.303,-0.462l-26.165,21.121c-11.593,7.177 -16.856,9.343 -9.569,-8.524l23.744,-37.745c3.819,-5.251 8.027,-18.163 -0.101,-26.559c-5.388,-6.573 -17.392,-2.587 -23.591,6.268l-24.032,32.693l3.221,-26.841l0.519,-19.98c2.161,-30.665 -11.646,-46.763 -43.71,-46.205c-6.187,1.106 -11.069,-0.181 -21.229,8.208c-8.912,0.941 -19.587,1.439 -26.097,-0.623c-6.916,8.498 -12.808,11.869 -17.923,11.36c-7.558,-1.293 -13.223,-6.059 -17.179,-13.958c-11.867,1.102 -19.943,5.395 -20.399,16.105c1.296,7.071 -3.767,14.327 -9.075,18.996l-9.177,7.845c-2.839,-5.733 -6.434,-11.202 -16.998,-14.232l-8.965,1.074c-8.802,2.593 -18.402,7.285 -24.514,14.873l7.804,-18.404c1.434,-7.999 1.87,-16.94 2.147,-21.855c0.295,-4.156 -0.255,-11.594 -7.79,-17.286c-2.441,-2.619 -5.825,-4.451 -12.884,-3.221c-5.196,2.087 -10.525,6.716 -16.105,16.105l-9.663,-2.147l-0.158,-10.968c0.034,-6.732 -3.983,-15.634 -12.019,-24.528c-9.111,-7.55 -16.889,-15.541 -27.548,-14.966c-11.836,-6.003 -23.065,-5.989 -25.299,-6.219c-10.769,0.355 -18.938,2.789 -25.864,6.219c-6.925,-3.43 -15.095,-5.864 -25.864,-6.219c-2.234,0.229 -13.463,0.215 -25.299,6.219c-10.659,-0.575 -18.437,7.416 -27.548,14.966c-8.036,8.894 -12.053,17.795 -12.019,24.528l-0.158,10.968l-9.663,2.147c-5.58,-9.389 -10.909,-14.018 -16.105,-16.105c-7.059,-1.23 -10.443,0.602 -12.884,3.221c-7.535,5.692 -8.084,13.13 -7.79,17.286c0.277,4.915 0.713,13.855 2.147,21.855l7.804,18.404c-6.112,-7.588 -15.712,-12.28 -24.514,-14.873l-8.965,-1.074c-10.564,3.029 -14.159,8.498 -16.998,14.232l-9.177,-7.845c-5.309,-4.669 -10.371,-11.925 -9.075,-18.996c-0.457,-10.71 -8.533,-15.003 -20.399,-16.105c-3.956,7.898 -9.62,12.664 -17.179,13.958c-5.115,0.509 -11.006,-2.862 -17.923,-11.36c-6.51,2.062 -17.185,1.564 -26.097,0.623c-10.16,-8.388 -15.042,-7.102 -21.229,-8.208c-32.064,-0.558 -45.87,15.541 -43.71,46.205l0.519,19.98l3.221,26.841l-24.032,-32.693c-6.199,-8.856 -18.203,-12.842 -23.591,-6.268c-8.128,8.397 -3.92,21.308 -0.101,26.559l23.744,37.745c7.286,17.868 2.024,15.701 -9.569,8.524l-26.165,-21.121c-4.901,-1.107 -11.677,-7.561 -23.303,0.462c-7.786,4.884 -4.157,19.987 3.43,25.832l29.069,25.178c13.098,12.562 0.41,20.239 -13.669,14.26l-15.262,-8.691l-8.589,-20.399c-3.563,-4.161 -13.015,-12.61 -18.079,-10.841c-6.402,-2.25 -10.846,10.486 -10.632,19.051l-2.425,32.589l-8.589,1.074c-6.731,-25.302 -14.167,-47.341 -25.716,-50.358c-12.41,-1.013 -20.402,1.741 -24.4,6.736c-12.566,-0.28 -20.868,3.194 -31.482,7.117c-14.846,7.702 -28.86,16.051 -38.287,27.967c-6.456,7.72 -8.884,16.195 -5.733,25.716l17.179,49.388l-33.608,-27.706c-7.196,-2.932 -18.52,-3.755 -24.737,2.465c-5.244,6.909 -3.416,17.143 1.441,23.094c19.125,14.944 37.663,27.539 57.977,47.241c-10.518,25.972 -26.965,31.423 -47.241,23.62c-7.076,-12.727 -15.91,-19.594 -26.505,-20.594c-18.232,0.572 -28.095,11.23 -33.426,23.529l-1.268,48.6l-20.205,-23.478c-8.848,-4.753 -19.147,-2.47 -20.839,-0.246c-7.127,3.74 -7.575,15.094 -2.975,25.871l41.873,55.83c-35.081,-23.04 -60.168,-33.618 -68.274,-21.473c-5.765,17.331 2.828,33.429 39.286,47.241l59.051,27.915c-40.41,-7.918 -62.123,-4.554 -62.66,10.982c4.636,17.07 22.363,22.921 55.145,21.227l83.745,-13.958c60.955,43.848 130.9,69.717 210.179,76.917c119.276,1.585 230.437,-11.031 327.723,-47.928m70.983,-58.254c15.724,37.524 170.51,78.09 283.651,76.52c93.339,-2.93 170.232,-27.705 236.596,-64.646c-17.657,-15.836 -29.889,-34.771 -39.139,-55.411c-5.791,-19.355 5.468,-33.501 10.007,-32.326c6.223,0.269 25.33,10.212 30.044,24.603l0.602,-49.008c-0.421,-17.07 -11.82,-21.618 -29.658,-20.669c-11.966,0.128 -22.539,7.214 -32.103,19.35c3.644,36.548 -18.86,59.151 -60.248,71.682c-17.828,1.241 -35.434,1.596 -51.453,-4.398c-49.475,29.372 -102.157,48.41 -160.076,50.573c-70.022,5.498 -133.21,0.747 -188.221,-16.271m0.123,-52.702c32.678,1.704 66.414,2.837 99.265,-1.829c72.286,-18.771 129.863,-53.23 186.198,-96.397c19.25,5.689 26.464,20.781 22.252,40.547c-21.745,-0.639 -34.312,2.252 -31.663,10.994c2.811,21.488 17.359,37.647 32.367,51.629c-50.962,19.236 -107.7,32.797 -169.927,34.196c-64.16,-2.401 -141.88,-14.634 -138.492,-39.139m-1.003,-88.024l1.583,-20.053l-1.583,20.053c42.909,0.476 85.152,-14.549 116.803,-33.774c-13.213,-4.77 -29.035,-10.856 -34.742,-20.317c-23.762,18.764 -49.209,30.288 -80.478,34.038l-1.583,20.053m-70.103,198.981c-17.382,92.799 -54.789,143.138 -171.841,182.683c-16.671,3.997 -32.621,-7.134 -27.271,-13.442c9.087,-9.462 13.474,-18.279 6.39,-30.681c-5.908,-6.13 -21.001,-1.926 -38.652,5.154c-3.76,-23.504 -11.998,-37.492 -27.486,-36.075c-14.934,2.842 -14.03,24.162 -2.577,57.788c-32.755,-22.645 -50.462,-27.706 -52.394,-16.56c-7.361,33.873 39.11,70.401 109.942,65.278c83.926,-7.817 157.047,-45.557 208.719,-126.674l1.718,239.193c-40.358,23.128 -52.776,38.107 -48.1,48.1c0.476,6.03 16.605,8.911 43.143,3.198l-10.302,687.915c0.81,22.105 -14.438,40.196 -42.946,54.971c-135.382,13.686 -227.695,30.772 -251.665,53.253l687.494,0c-23.97,-22.482 -116.283,-39.568 -251.665,-53.253c-28.508,-14.776 -43.756,-32.866 -42.946,-54.971l-6.787,-453.207c33.711,16.547 69.174,35.43 81.289,23.183c15.041,-16.858 -35.911,-45.363 -82.035,-73.015l-6.393,-292.533c29.697,40.504 104.829,101.815 186.109,97.676c37.733,-4.359 45.91,-12.208 70.484,-35.363c29.679,-0.747 67.839,-12.731 102.213,-53.85c6.408,-14.935 0.304,-22.05 -15.804,-22.912l-41.998,27.689c10.676,-18.888 24.003,-41.231 26.194,-62.947c-3.8,-18.625 -13.55,-14.859 -23.934,-11.868c-12.401,9.616 -21.056,26.722 -29.662,43.927c2.791,-19.56 4.321,-40.34 -1.391,-57.066c-11.723,-12.03 -20.071,-10.82 -30.855,-0.335c-5.43,16.949 -4.906,34.954 -3.485,51.904c-3.806,-4.772 -11.862,-18.753 -21.301,-35.731c-17.222,-10.953 -25.026,-4.326 -28.173,10.994c3.891,15.266 9.785,33.202 16.491,52.223l-28.86,-17.178c-18.767,-5.448 -24.866,0.798 -19.24,17.866c9.891,17.401 24.889,33.95 46.038,49.474c-9.198,13.246 -30.276,18.606 -55.658,13.056c-82.251,-20.455 -123.862,-78.84 -149.796,-151.858l4.123,-88.641l22.053,7.441c8.967,2.621 28.213,3.677 29.264,-0.848c2.067,-8.898 0.064,-10.875 -11.6,-17.615c-28.075,-12.435 -39.775,-28.673 -41.361,-53.668l5.366,-32.674" style="stroke-width:16.67px;"/></svg>